<?xml version="1.0" encoding="UTF-8" standalone="no"?>
<!-- Created with Inkscape (http://www.inkscape.org/) -->

<svg
   xmlns:dc="http://purl.org/dc/elements/1.1/"
   xmlns:cc="http://creativecommons.org/ns#"
   xmlns:rdf="http://www.w3.org/1999/02/22-rdf-syntax-ns#"
   xmlns:svg="http://www.w3.org/2000/svg"
   xmlns="http://www.w3.org/2000/svg"
   xmlns:xlink="http://www.w3.org/1999/xlink"
   xmlns:sodipodi="http://sodipodi.sourceforge.net/DTD/sodipodi-0.dtd"
   xmlns:inkscape="http://www.inkscape.org/namespaces/inkscape"
   id="svg2"
   version="1.1"
   inkscape:version="0.48.2 r9819"
   width="800"
   height="600"
   xml:space="preserve"
   sodipodi:docname="sd_card.svg"><metadata
     id="metadata8"><rdf:RDF><cc:Work
         rdf:about=""><dc:format>image/svg+xml</dc:format><dc:type
           rdf:resource="http://purl.org/dc/dcmitype/StillImage" /><dc:title></dc:title></cc:Work></rdf:RDF></metadata><defs
     id="defs6"><linearGradient
       inkscape:collect="always"
       id="linearGradient35083"><stop
         style="stop-color:#000000;stop-opacity:1;"
         offset="0"
         id="stop35085" /><stop
         style="stop-color:#000000;stop-opacity:0;"
         offset="1"
         id="stop35087" /></linearGradient><clipPath
       clipPathUnits="userSpaceOnUse"
       id="clipPath16"><path
         d="M 0,480 640,480 640,0 0,0 0,480 z"
         id="path18" /></clipPath><clipPath
       clipPathUnits="userSpaceOnUse"
       id="clipPath14900"><path
         d="M 0,480 640,480 640,0 0,0 0,480 z"
         id="path14902" /></clipPath><linearGradient
       inkscape:collect="always"
       xlink:href="#linearGradient35083"
       id="linearGradient35089"
       x1="250.16948"
       y1="388.47458"
       x2="258.30508"
       y2="-467.7966"
       gradientUnits="userSpaceOnUse" /><linearGradient
       inkscape:collect="always"
       xlink:href="#linearGradient35083"
       id="linearGradient35091"
       gradientUnits="userSpaceOnUse"
       x1="250.16948"
       y1="388.47458"
       x2="258.30508"
       y2="-467.7966" /><linearGradient
       inkscape:collect="always"
       xlink:href="#linearGradient35083"
       id="linearGradient35093"
       gradientUnits="userSpaceOnUse"
       x1="250.16948"
       y1="388.47458"
       x2="258.30508"
       y2="-467.7966" /><linearGradient
       inkscape:collect="always"
       xlink:href="#linearGradient35083"
       id="linearGradient35095"
       gradientUnits="userSpaceOnUse"
       x1="250.16948"
       y1="388.47458"
       x2="258.30508"
       y2="-467.7966" /><linearGradient
       inkscape:collect="always"
       xlink:href="#linearGradient35083"
       id="linearGradient35125"
       gradientUnits="userSpaceOnUse"
       x1="250.16948"
       y1="388.47458"
       x2="258.30508"
       y2="-467.7966" /><linearGradient
       inkscape:collect="always"
       xlink:href="#linearGradient35083"
       id="linearGradient35127"
       gradientUnits="userSpaceOnUse"
       x1="250.16948"
       y1="388.47458"
       x2="258.30508"
       y2="-467.7966" /><linearGradient
       inkscape:collect="always"
       xlink:href="#linearGradient35083"
       id="linearGradient35129"
       gradientUnits="userSpaceOnUse"
       x1="250.16948"
       y1="388.47458"
       x2="258.30508"
       y2="-467.7966" /><linearGradient
       inkscape:collect="always"
       xlink:href="#linearGradient35083"
       id="linearGradient35131"
       gradientUnits="userSpaceOnUse"
       x1="250.16948"
       y1="388.47458"
       x2="258.30508"
       y2="-467.7966" /><linearGradient
       inkscape:collect="always"
       xlink:href="#linearGradient35083"
       id="linearGradient35259"
       gradientUnits="userSpaceOnUse"
       x1="250.16948"
       y1="388.47458"
       x2="258.30508"
       y2="-467.7966" /><linearGradient
       inkscape:collect="always"
       xlink:href="#linearGradient35083"
       id="linearGradient35261"
       gradientUnits="userSpaceOnUse"
       x1="250.16948"
       y1="388.47458"
       x2="258.30508"
       y2="-467.7966" /><linearGradient
       inkscape:collect="always"
       xlink:href="#linearGradient35083"
       id="linearGradient35263"
       gradientUnits="userSpaceOnUse"
       x1="250.16948"
       y1="388.47458"
       x2="258.30508"
       y2="-467.7966" /><linearGradient
       inkscape:collect="always"
       xlink:href="#linearGradient35083"
       id="linearGradient35265"
       gradientUnits="userSpaceOnUse"
       x1="250.16948"
       y1="388.47458"
       x2="258.30508"
       y2="-467.7966" /></defs><sodipodi:namedview
     pagecolor="#ffffff"
     bordercolor="#666666"
     borderopacity="1"
     objecttolerance="10"
     gridtolerance="10"
     guidetolerance="10"
     inkscape:pageopacity="0"
     inkscape:pageshadow="2"
     inkscape:window-width="1638"
     inkscape:window-height="1017"
     id="namedview4"
     showgrid="false"
     inkscape:zoom="1"
     inkscape:cx="-410.90909"
     inkscape:cy="660"
     inkscape:window-x="54"
     inkscape:window-y="0"
     inkscape:window-maximized="0"
     inkscape:current-layer="g10" /><g
     id="g10"
     inkscape:groupmode="layer"
     inkscape:label="sd_card"
     transform="matrix(1.25,0,0,-1.25,0,600)"><g
       id="g14896"
       inkscape:export-filename="/Users/dave/trash/sdcard.png"
       inkscape:export-xdpi="105.25053"
       inkscape:export-ydpi="105.25053"
       style="fill:url(#linearGradient35089);fill-opacity:1"
       transform="translate(4.0677958,-2.0338986)"><g
         id="g14898"
         clip-path="url(#clipPath14900)"
         style="fill:url(#linearGradient35095);fill-opacity:1"><g
           id="g14904"
           transform="translate(140.5273,45.6641)"
           style="fill:url(#linearGradient35093);fill-opacity:1"><path
             d="m 0,0 c 0,0 -7.254,7.25 -7.254,9.229 l 0,213.054 9.393,0.053 0,19.166 -10,0 -0.065,65.212 44.866,42.872 209.093,-0.66 5.936,-3.958 -0.432,-81.919 -7.986,-0.019 -0.155,-73.065 8.667,-0.093 1.228,-179.321 c 0,0 0.666,-11.215 -5.937,-11.215 l -88.389,0 L 145.77,6.594 92.473,6.669 79.813,0 0,0 z"
             style="fill:url(#linearGradient35091);fill-opacity:1;fill-rule:evenodd;stroke:none"
             id="path14906"
             inkscape:connector-curvature="0" /></g></g></g><g
       id="g14908"
       transform="translate(152,351.375)"><path
         d="M 0,0 9.638,8.917 20.188,8.792 20.125,-40.125 -0.167,-40.042 0,0 z"
         style="fill:#f1ea2f;fill-opacity:1;fill-rule:nonzero;stroke:none"
         id="path14910" /></g><path
       d="m 199.358,328.574 -19.525,0 0,51.105 19.525,0 0,-51.105 z"
       style="fill:#f1ea2f;fill-opacity:1;fill-rule:nonzero;stroke:none"
       id="path14912" /><path
       d="m 226.184,328.574 -19.525,0 0,51.105 19.525,0 0,-51.105 z"
       style="fill:#f1ea2f;fill-opacity:1;fill-rule:nonzero;stroke:none"
       id="path14914" /><path
       d="m 253.516,328.574 -19.525,0 0,51.105 19.525,0 0,-51.105 z"
       style="fill:#f1ea2f;fill-opacity:1;fill-rule:nonzero;stroke:none"
       id="path14916" /><path
       d="m 280.678,328.574 -19.525,0 0,51.105 19.525,0 0,-51.105 z"
       style="fill:#f1ea2f;fill-opacity:1;fill-rule:nonzero;stroke:none"
       id="path14918" /><path
       d="m 308.351,328.574 -19.525,0 0,51.105 19.525,0 0,-51.105 z"
       style="fill:#f1ea2f;fill-opacity:1;fill-rule:nonzero;stroke:none"
       id="path14920" /><path
       d="m 336.021,328.574 -19.525,0 0,51.105 19.525,0 0,-51.105 z"
       style="fill:#f1ea2f;fill-opacity:1;fill-rule:nonzero;stroke:none"
       id="path14922" /><path
       d="m 361.15,328.574 -19.523,0 0,51.105 19.523,0 0,-51.105 z"
       style="fill:#f1ea2f;fill-opacity:1;fill-rule:nonzero;stroke:none"
       id="path14924" /><path
       d="m 380.838,328.574 -15.109,0 0,51.105 15.109,0 0,-51.105 z"
       style="fill:#f1ea2f;fill-opacity:1;fill-rule:nonzero;stroke:none"
       id="path14926" /><rect
       style="fill:#c00000;fill-opacity:1;stroke:#000000;stroke-width:1.60000002;stroke-linejoin:round;stroke-miterlimit:4;stroke-opacity:1;stroke-dasharray:none"
       id="rect35161"
       width="289.83051"
       height="38.135593"
       x="-638.13562"
       y="833.89832"
       transform="matrix(0.8,0,0,-0.8,0,480)" /><rect
       style="fill:#c00000;fill-opacity:1;stroke:#000000;stroke-width:1.60000002;stroke-linejoin:round;stroke-miterlimit:4;stroke-opacity:1;stroke-dasharray:none"
       id="rect35163"
       width="345.76273"
       height="53.389832"
       x="-607.62714"
       y="940.67798"
       transform="matrix(0.8,0,0,-0.8,0,480)" /><g
       id="g35190"><g
         id="g35133"><g
           transform="translate(-512.54237,235.9322)"
           style="fill:url(#linearGradient35131);fill-opacity:1"
           inkscape:export-ydpi="105.25053"
           inkscape:export-xdpi="105.25053"
           inkscape:export-filename="/Users/dave/trash/sdcard.png"
           id="g35097"><g
             style="fill:url(#linearGradient35129);fill-opacity:1"
             clip-path="url(#clipPath14900)"
             id="g35099"><g
               style="fill:url(#linearGradient35127);fill-opacity:1"
               transform="translate(140.5273,45.6641)"
               id="g35101"><path
                 inkscape:connector-curvature="0"
                 id="path35103"
                 style="fill:url(#linearGradient35125);fill-opacity:1;fill-rule:evenodd;stroke:none"
                 d="m 0,0 c 0,0 -7.254,7.25 -7.254,9.229 l 0,213.054 9.393,0.053 0,19.166 -10,0 -0.065,65.212 44.866,42.872 209.093,-0.66 5.936,-3.958 -0.432,-81.919 -7.986,-0.019 -0.155,-73.065 8.667,-0.093 1.228,-179.321 c 0,0 0.666,-11.215 -5.937,-11.215 l -88.389,0 L 145.77,6.594 92.473,6.669 79.813,0 0,0 z" /></g></g></g><g
           transform="translate(-364.61017,589.3411)"
           id="g35105"><path
             id="path35107"
             style="fill:#f1ea2f;fill-opacity:1;fill-rule:nonzero;stroke:none"
             d="M 0,0 9.638,8.917 20.188,8.792 20.125,-40.125 -0.167,-40.042 0,0 z"
             inkscape:connector-curvature="0" /></g><path
           id="path35109"
           style="fill:#f1ea2f;fill-opacity:1;fill-rule:nonzero;stroke:none"
           d="m -317.25217,566.5401 -19.525,0 0,51.105 19.525,0 0,-51.105 z"
           inkscape:connector-curvature="0" /><path
           id="path35111"
           style="fill:#f1ea2f;fill-opacity:1;fill-rule:nonzero;stroke:none"
           d="m -290.42617,566.5401 -19.525,0 0,51.105 19.525,0 0,-51.105 z"
           inkscape:connector-curvature="0" /><path
           id="path35113"
           style="fill:#f1ea2f;fill-opacity:1;fill-rule:nonzero;stroke:none"
           d="m -263.09417,566.5401 -19.525,0 0,51.105 19.525,0 0,-51.105 z"
           inkscape:connector-curvature="0" /><path
           id="path35115"
           style="fill:#f1ea2f;fill-opacity:1;fill-rule:nonzero;stroke:none"
           d="m -235.93217,566.5401 -19.525,0 0,51.105 19.525,0 0,-51.105 z"
           inkscape:connector-curvature="0" /><path
           id="path35117"
           style="fill:#f1ea2f;fill-opacity:1;fill-rule:nonzero;stroke:none"
           d="m -208.25917,566.5401 -19.525,0 0,51.105 19.525,0 0,-51.105 z"
           inkscape:connector-curvature="0" /><path
           id="path35119"
           style="fill:#f1ea2f;fill-opacity:1;fill-rule:nonzero;stroke:none"
           d="m -180.58917,566.5401 -19.525,0 0,51.105 19.525,0 0,-51.105 z"
           inkscape:connector-curvature="0" /><path
           id="path35121"
           style="fill:#f1ea2f;fill-opacity:1;fill-rule:nonzero;stroke:none"
           d="m -155.46017,566.5401 -19.523,0 0,51.105 19.523,0 0,-51.105 z"
           inkscape:connector-curvature="0" /><path
           id="path35123"
           style="fill:#f1ea2f;fill-opacity:1;fill-rule:nonzero;stroke:none"
           d="m -135.77217,566.5401 -15.109,0 0,51.105 15.109,0 0,-51.105 z"
           inkscape:connector-curvature="0" /></g><rect
         transform="scale(1,-1)"
         y="-407.94577"
         x="-376.27118"
         height="26.44067"
         width="256.06912"
         id="rect35157"
         style="fill:#d4b821;fill-opacity:1;stroke:#000000;stroke-width:1.32779503000000010;stroke-linejoin:round;stroke-miterlimit:4;stroke-opacity:1;stroke-dasharray:none" /><rect
         style="fill:#5bc62b;fill-opacity:1;stroke:#000000;stroke-width:1.32779503000000010;stroke-linejoin:round;stroke-miterlimit:4;stroke-opacity:1;stroke-dasharray:none"
         id="rect35184"
         width="256.06912"
         height="26.44067"
         x="-376.27118"
         y="-378.34576"
         transform="scale(1,-1)" /><rect
         transform="scale(1,-1)"
         y="-349.54575"
         x="-376.27118"
         height="26.44067"
         width="256.06912"
         id="rect35186"
         style="fill:#3c50a4;fill-opacity:1;stroke:#000000;stroke-width:1.32779503000000010;stroke-linejoin:round;stroke-miterlimit:4;stroke-opacity:1;stroke-dasharray:none" /><rect
         style="fill:#c00000;fill-opacity:1;stroke:#000000;stroke-width:1.32779503;stroke-linejoin:round;stroke-miterlimit:4;stroke-opacity:1;stroke-dasharray:none"
         id="rect35188"
         width="256.06912"
         height="26.44067"
         x="-376.27118"
         y="-438.34589"
         transform="scale(1,-1)" /></g><g
       id="g35219"
       transform="matrix(0.95761432,0.2880535,-0.2880535,0.95761432,-217.59883,271.14872)"
       inkscape:export-filename="/Users/dave/trash/sd36.png"
       inkscape:export-xdpi="6.3998857"
       inkscape:export-ydpi="6.3998857"><g
         id="g35221"><g
           id="g35223"
           inkscape:export-filename="/Users/dave/trash/sdcard.png"
           inkscape:export-xdpi="105.25053"
           inkscape:export-ydpi="105.25053"
           style="fill:url(#linearGradient35265);fill-opacity:1"
           transform="translate(-512.54237,235.9322)"><g
             id="g35225"
             clip-path="url(#clipPath14900)"
             style="fill:url(#linearGradient35263);fill-opacity:1"><g
               id="g35227"
               transform="translate(140.5273,45.6641)"
               style="fill:url(#linearGradient35261);fill-opacity:1"><path
                 d="m 0,0 c 0,0 -7.254,7.25 -7.254,9.229 l 0,213.054 9.393,0.053 0,19.166 -10,0 -0.065,65.212 44.866,42.872 209.093,-0.66 5.936,-3.958 -0.432,-81.919 -7.986,-0.019 -0.155,-73.065 8.667,-0.093 1.228,-179.321 c 0,0 0.666,-11.215 -5.937,-11.215 l -88.389,0 L 145.77,6.594 92.473,6.669 79.813,0 0,0 z"
                 style="fill:url(#linearGradient35259);fill-opacity:1;fill-rule:evenodd;stroke:none"
                 id="path35229"
                 inkscape:connector-curvature="0" /></g></g></g><g
           id="g35231"
           transform="translate(-364.61017,589.3411)"><path
             inkscape:connector-curvature="0"
             d="M 0,0 9.638,8.917 20.188,8.792 20.125,-40.125 -0.167,-40.042 0,0 z"
             style="fill:#f1ea2f;fill-opacity:1;fill-rule:nonzero;stroke:none"
             id="path35233" /></g><path
           inkscape:connector-curvature="0"
           d="m -317.25217,566.5401 -19.525,0 0,51.105 19.525,0 0,-51.105 z"
           style="fill:#f1ea2f;fill-opacity:1;fill-rule:nonzero;stroke:none"
           id="path35235" /><path
           inkscape:connector-curvature="0"
           d="m -290.42617,566.5401 -19.525,0 0,51.105 19.525,0 0,-51.105 z"
           style="fill:#f1ea2f;fill-opacity:1;fill-rule:nonzero;stroke:none"
           id="path35237" /><path
           inkscape:connector-curvature="0"
           d="m -263.09417,566.5401 -19.525,0 0,51.105 19.525,0 0,-51.105 z"
           style="fill:#f1ea2f;fill-opacity:1;fill-rule:nonzero;stroke:none"
           id="path35239" /><path
           inkscape:connector-curvature="0"
           d="m -235.93217,566.5401 -19.525,0 0,51.105 19.525,0 0,-51.105 z"
           style="fill:#f1ea2f;fill-opacity:1;fill-rule:nonzero;stroke:none"
           id="path35241" /><path
           inkscape:connector-curvature="0"
           d="m -208.25917,566.5401 -19.525,0 0,51.105 19.525,0 0,-51.105 z"
           style="fill:#f1ea2f;fill-opacity:1;fill-rule:nonzero;stroke:none"
           id="path35243" /><path
           inkscape:connector-curvature="0"
           d="m -180.58917,566.5401 -19.525,0 0,51.105 19.525,0 0,-51.105 z"
           style="fill:#f1ea2f;fill-opacity:1;fill-rule:nonzero;stroke:none"
           id="path35245" /><path
           inkscape:connector-curvature="0"
           d="m -155.46017,566.5401 -19.523,0 0,51.105 19.523,0 0,-51.105 z"
           style="fill:#f1ea2f;fill-opacity:1;fill-rule:nonzero;stroke:none"
           id="path35247" /><path
           inkscape:connector-curvature="0"
           d="m -135.77217,566.5401 -15.109,0 0,51.105 15.109,0 0,-51.105 z"
           style="fill:#f1ea2f;fill-opacity:1;fill-rule:nonzero;stroke:none"
           id="path35249" /></g><rect
         style="fill:#d4b821;fill-opacity:1;stroke:#000000;stroke-width:1.32779503;stroke-linejoin:round;stroke-miterlimit:4;stroke-opacity:1;stroke-dasharray:none"
         id="rect35251"
         width="256.06912"
         height="26.44067"
         x="-376.27118"
         y="-407.94577"
         transform="scale(1,-1)" /><rect
         transform="scale(1,-1)"
         y="-378.34576"
         x="-376.27118"
         height="26.44067"
         width="256.06912"
         id="rect35253"
         style="fill:#5bc62b;fill-opacity:1;stroke:#000000;stroke-width:1.32779503;stroke-linejoin:round;stroke-miterlimit:4;stroke-opacity:1;stroke-dasharray:none" /><rect
         style="fill:#3c50a4;fill-opacity:1;stroke:#000000;stroke-width:1.32779503;stroke-linejoin:round;stroke-miterlimit:4;stroke-opacity:1;stroke-dasharray:none"
         id="rect35255"
         width="256.06912"
         height="26.44067"
         x="-376.27118"
         y="-349.54575"
         transform="scale(1,-1)" /><rect
         transform="scale(1,-1)"
         y="-438.34589"
         x="-376.27118"
         height="26.44067"
         width="256.06912"
         id="rect35257"
         style="fill:#c00000;fill-opacity:1;stroke:#000000;stroke-width:1.32779503;stroke-linejoin:round;stroke-miterlimit:4;stroke-opacity:1;stroke-dasharray:none" /></g></g></svg>